<mxfile host="app.diagrams.net" modified="2024-01-30T05:52:33.580Z" agent="Mozilla/5.0 (Windows NT 10.0; Win64; x64) AppleWebKit/537.36 (KHTML, like Gecko) Chrome/121.0.0.0 Safari/537.36" version="23.0.2" etag="Ru63yjlpHA_huoKUKlz6" type="github">
  <diagram name="Страница — 1" id="dVjp6CT9076c9tWKLAab">
    <mxGraphModel>
      <root>
        <mxCell id="0" />
        <mxCell id="1" parent="0" />
      </root>
    </mxGraphModel>
  </diagram>
</mxfile>
